<svg width="26" height="26" viewBox="0 0 26 26" fill="none" xmlns="http://www.w3.org/2000/svg">
<path d="M11.0894 9.06057C11.4702 9.44133 11.4702 10.0587 11.0894 10.4394L8.52886 13L11.0894 15.5606C11.4702 15.9413 11.4702 16.5587 11.0894 16.9394C10.7087 17.3202 10.0913 17.3202 9.71057 16.9394L6.46057 13.6894C6.07981 13.3087 6.07981 12.6913 6.46057 12.3106L9.71057 9.06057C10.0913 8.67981 10.7087 8.67981 11.0894 9.06057Z" fill="currentColor"/>
<path d="M14.9106 15.5606C14.5298 15.9413 14.5298 16.5587 14.9106 16.9394C15.2913 17.3202 15.9087 17.3202 16.2894 16.9394L19.5394 13.6894C19.9202 13.3087 19.9202 12.6913 19.5394 12.3106L16.2894 9.06057C15.9087 8.67981 15.2913 8.67981 14.9106 9.06057C14.5298 9.44133 14.5298 10.0587 14.9106 10.4394L17.4711 13L14.9106 15.5606Z" fill="currentColor"/>
<path fill-rule="evenodd" clip-rule="evenodd" d="M1.625 7.8C1.625 4.38964 4.38964 1.625 7.8 1.625H18.2C21.6104 1.625 24.375 4.38964 24.375 7.8V18.2C24.375 21.6104 21.6104 24.375 18.2 24.375H7.8C4.38964 24.375 1.625 21.6104 1.625 18.2V7.8ZM7.8 3.575C5.4666 3.575 3.575 5.4666 3.575 7.8V18.2C3.575 20.5334 5.4666 22.425 7.8 22.425H18.2C20.5334 22.425 22.425 20.5334 22.425 18.2V7.8C22.425 5.4666 20.5334 3.575 18.2 3.575H7.8Z" fill="currentColor"/>
</svg>
