<svg width="16" height="16" viewBox="0 0 16 16" fill="none" xmlns="http://www.w3.org/2000/svg">
<path d="M13.667 5.2002C14.32 5.20038 14.7998 5.74773 14.7998 6.36035V13.6396C14.7998 14.2523 14.32 14.7996 13.667 14.7998H6.7334C6.08023 14.7998 5.59961 14.2524 5.59961 13.6396V6.36035C5.59961 5.74762 6.08023 5.2002 6.7334 5.2002H13.667ZM6.7998 13.5996H13.5996V6.40039H6.7998V13.5996ZM11.7998 10.7998C12.1312 10.7998 12.4004 11.069 12.4004 11.4004C12.4002 11.7316 12.131 12 11.7998 12H8.59961C8.26855 11.9998 8.00021 11.7315 8 11.4004C8 11.0691 8.26842 10.8 8.59961 10.7998H11.7998ZM9.66699 1.59961C10.3687 1.5998 10.7998 2.22495 10.7998 2.81348V4.2002H9.59961V2.7998H2.80078C2.8003 2.80378 2.7998 2.80856 2.7998 2.81348V9.98633C2.7998 9.99125 2.8003 9.99602 2.80078 10H4.59961V11.2002H2.7334C2.03148 11.2002 1.59961 10.5749 1.59961 9.98633V2.81348C1.59961 2.22486 2.03148 1.59961 2.7334 1.59961H9.66699ZM11.7998 8C12.131 8 12.4002 8.26842 12.4004 8.59961C12.4004 8.93098 12.1312 9.2002 11.7998 9.2002H8.59961C8.26842 9.19998 8 8.93085 8 8.59961C8.00021 8.26855 8.26855 8.00021 8.59961 8H11.7998Z" fill="currentColor"/>
</svg>
