<svg width="61" height="16" viewBox="0 0 61 16" fill="none" xmlns="http://www.w3.org/2000/svg">
<path d="M26.3 10.464H30.524V11.748H20.516V10.464H24.716V8.22H21.572V2.796H29.432V8.22H26.3V10.464ZM23.12 4.044V6.972H27.884V4.044H23.12ZM39.1391 1.992H40.7351V7.98H39.1391V1.992ZM38.4431 6.624L37.6751 7.848C37.0511 7.664 36.5231 7.396 36.0911 7.044C35.6671 6.684 35.3271 6.264 35.0711 5.784C34.8151 6.312 34.4631 6.772 34.0151 7.164C33.5751 7.548 33.0311 7.84 32.3831 8.04L31.5911 6.792C32.0311 6.664 32.4111 6.496 32.7311 6.288C33.0511 6.08 33.3191 5.848 33.5351 5.592C33.7511 5.328 33.9151 5.048 34.0271 4.752C34.1391 4.448 34.2071 4.14 34.2311 3.828H32.0231V2.58H38.0351V3.828H35.8631C35.8871 4.116 35.9551 4.404 36.0671 4.692C36.1791 4.972 36.3391 5.236 36.5471 5.484C36.7631 5.724 37.0271 5.944 37.3391 6.144C37.6511 6.344 38.0191 6.504 38.4431 6.624ZM39.1631 9.456V8.448H40.7351V12.9H33.3911V8.448H34.9631V9.456H39.1631ZM39.1631 11.64V10.668H34.9631V11.64H39.1631ZM46.2729 6.564L45.7449 5.34C46.7689 5.244 47.5569 5.04 48.1089 4.728C48.6609 4.416 49.0089 4.072 49.1529 3.696H46.2249V2.436H54.3969V3.696H51.4569C51.6009 4.072 51.9489 4.416 52.5009 4.728C53.0529 5.04 53.8449 5.244 54.8769 5.34L54.3249 6.564C53.2769 6.476 52.4169 6.252 51.7449 5.892C51.0809 5.532 50.6009 5.088 50.3049 4.56C50.0089 5.088 49.5289 5.532 48.8649 5.892C48.2089 6.252 47.3449 6.476 46.2729 6.564ZM55.2969 8.256H51.0969V9.072C52.0649 9.152 52.8089 9.356 53.3289 9.684C53.8569 10.012 54.1209 10.464 54.1209 11.04C54.1209 11.68 53.7769 12.172 53.0889 12.516C52.4089 12.868 51.4729 13.044 50.2809 13.044C49.0889 13.044 48.1529 12.868 47.4729 12.516C46.7929 12.172 46.4529 11.68 46.4529 11.04C46.4529 10.464 46.7209 10.012 47.2569 9.684C47.7929 9.348 48.5449 9.14 49.5129 9.06V8.256H45.3129V6.996H55.2969V8.256ZM52.5129 11.04C52.5129 10.76 52.3289 10.556 51.9609 10.428C51.5929 10.3 51.0329 10.236 50.2809 10.236C49.5289 10.236 48.9689 10.3 48.6009 10.428C48.2329 10.556 48.0489 10.76 48.0489 11.04C48.0489 11.32 48.2329 11.524 48.6009 11.652C48.9689 11.772 49.5289 11.832 50.2809 11.832C51.0329 11.832 51.5929 11.772 51.9609 11.652C52.3289 11.524 52.5129 11.32 52.5129 11.04ZM58.8839 4.548L58.6319 9.456H57.4799L57.2279 4.548L57.1679 2.88H58.9439L58.8839 4.548ZM58.9439 10.464V12.168H57.1919V10.464H58.9439Z" fill="#2E6FF2"/>
<path fill-rule="evenodd" clip-rule="evenodd" d="M13 3.77248C13 3.348 12.5713 3.05774 12.1772 3.21539L10.2 4.00626V9.59382L12.1772 10.3847C12.5713 10.5423 13 10.2521 13 9.8276V3.77248ZM9.00005 9.40004V4.20004H5.60005C4.16411 4.20004 3.00005 5.3641 3.00005 6.80004C3.00005 8.23598 4.16411 9.40004 5.60005 9.40004H9.00005ZM7.13158 10.6H5.51898L5.86575 12.5073C5.96299 13.0421 6.53202 13.3478 7.03164 13.1337C7.4134 12.9701 7.61998 12.5536 7.51925 12.1507L7.13158 10.6ZM4.25476 10.355L4.68511 12.722C4.92024 14.0152 6.29622 14.7545 7.50435 14.2367C8.42746 13.8411 8.927 12.834 8.68342 11.8597L8.36851 10.6H9.4845L11.7315 11.4989C12.9139 11.9718 14.2 11.101 14.2 9.8276V3.77248C14.2 2.49904 12.9139 1.62828 11.7315 2.10122L9.4845 3.00004H5.60005C3.50137 3.00004 1.80005 4.70136 1.80005 6.80004C1.80005 8.42505 2.82006 9.81183 4.25476 10.355Z" fill="#2E6FF2"/>
</svg>
