<svg width="24" height="24" viewBox="0 0 24 24" fill="none" xmlns="http://www.w3.org/2000/svg">
<path fill-rule="evenodd" clip-rule="evenodd" d="M1.5 7.2C1.5 4.05198 4.05198 1.5 7.2 1.5H16.8C19.948 1.5 22.5 4.05198 22.5 7.2V16.8C22.5 19.948 19.948 22.5 16.8 22.5H7.2C4.05198 22.5 1.5 19.948 1.5 16.8V7.2ZM7.2 3.3C5.04609 3.3 3.3 5.04609 3.3 7.2V16.8C3.3 18.9539 5.04609 20.7 7.2 20.7H16.8C18.9539 20.7 20.7 18.9539 20.7 16.8V7.2C20.7 5.04609 18.9539 3.3 16.8 3.3H7.2Z" fill="currentColor"/>
<path fill-rule="evenodd" clip-rule="evenodd" d="M12.0001 7.5C12.4972 7.5 12.9001 7.90294 12.9001 8.4V15.6C12.9001 16.0971 12.4972 16.5 12.0001 16.5C11.503 16.5 11.1001 16.0971 11.1001 15.6V8.4C11.1001 7.90294 11.503 7.5 12.0001 7.5Z" fill="currentColor"/>
<path fill-rule="evenodd" clip-rule="evenodd" d="M7.5 12.0004C7.5 11.5033 7.90294 11.1004 8.4 11.1004L15.6 11.1004C16.0971 11.1004 16.5 11.5033 16.5 12.0004C16.5 12.4974 16.0971 12.9004 15.6 12.9004L8.4 12.9004C7.90294 12.9004 7.5 12.4974 7.5 12.0004Z" fill="currentColor"/>
</svg>
