<svg width="290" height="80" viewBox="0 0 290 80" fill="none" xmlns="http://www.w3.org/2000/svg">
<g filter="url(#filter0_d_126306_956)">
<rect x="15" y="10" width="260" height="50" rx="10" fill="#47494D"/>
<path d="M95 26.25C90.1675 26.25 86.25 30.1675 86.25 35C86.25 39.8325 90.1675 43.75 95 43.75C99.8325 43.75 103.75 39.8325 103.75 35C103.75 30.1675 99.8325 26.25 95 26.25Z" fill="#FFC533"/>
<path fill-rule="evenodd" clip-rule="evenodd" d="M98.462 32.4092C98.7883 32.6644 98.846 33.1358 98.5908 33.4621L95.0716 37.9621C94.9402 38.1301 94.7434 38.2342 94.5306 38.2484C94.3178 38.2626 94.109 38.1854 93.9565 38.0363L91.4757 35.6112C91.1795 35.3217 91.1741 34.8468 91.4637 34.5506C91.7532 34.2544 92.2281 34.249 92.5243 34.5386L94.406 36.3781L97.4092 32.538C97.6644 32.2117 98.1357 32.1541 98.462 32.4092Z" fill="#47494D"/>
<path d="M122.201 37.69V28.45H120.759V37.69H122.201ZM118.701 35.702L119.443 34.554C117.497 33.882 116.391 32.188 116.391 30.396V29.136H114.921V30.396C114.921 32.258 113.815 34.022 111.827 34.778L112.569 35.94C114.081 35.38 115.103 34.232 115.677 32.818C116.223 34.162 117.245 35.156 118.701 35.702ZM122.565 39.664H115.397V36.822H113.941V40.84H122.565V39.664ZM133.4 30.788V30.858C133.4 32.356 133.4 34.162 132.91 36.64L134.366 36.794C134.856 34.176 134.856 32.412 134.856 30.858V29.612H125.854V30.788H133.4ZM136.088 38.236H130.376V33.784H128.92V38.236H124.664V39.426H136.088V38.236ZM147.945 28.408H146.489V41.106H147.945V28.408ZM142.429 37.186V34.904H145.005V33.742H139.923V30.76H144.949V29.584H138.481V34.904H140.987V37.242C139.797 37.27 138.677 37.284 137.599 37.284L137.781 38.474C140.175 38.474 143.101 38.46 145.831 38.012L145.719 36.948C144.655 37.074 143.549 37.144 142.429 37.186ZM157.1 32.692H159.452V35.59H160.894V28.436H159.452V31.502H157.1C156.792 30.074 155.546 29.122 153.894 29.122C151.99 29.122 150.604 30.354 150.604 32.118C150.604 33.868 151.99 35.1 153.894 35.1C155.56 35.1 156.834 34.12 157.1 32.692ZM153.894 30.312C155.014 30.312 155.784 31.04 155.784 32.118C155.784 33.182 154.986 33.91 153.894 33.91C152.788 33.91 151.976 33.182 151.976 32.118C151.976 31.054 152.788 30.312 153.894 30.312ZM159.606 36.696V36.08H158.192V36.696C158.192 37.704 157.688 38.838 156.554 39.636C155.434 38.922 154.958 37.816 154.958 36.696V36.08H153.558V36.696C153.558 37.928 152.718 39.3 151.094 39.86L151.808 40.924C152.984 40.476 153.796 39.678 154.244 38.67C154.636 39.692 155.392 40.574 156.568 41.036C157.744 40.546 158.472 39.636 158.878 38.628C159.312 39.65 160.124 40.49 161.356 40.924L162.07 39.86C160.432 39.342 159.606 37.998 159.606 36.696ZM173.605 33.336L174.123 32.216C171.617 31.88 169.755 30.522 169.755 29.052V28.562H168.271V29.052C168.271 30.522 166.423 31.88 163.903 32.216L164.435 33.336C166.521 33.056 168.173 32.132 169.013 30.788C169.853 32.132 171.519 33.056 173.605 33.336ZM174.739 34.092H163.287V35.24H174.739V34.092ZM171.827 36.024V37.312H166.129V36.024H164.701V40.924H173.269V36.024H171.827ZM171.827 38.418V39.776H166.129V38.418H171.827ZM186.624 28.436H185.182V41.078H186.624V28.436ZM178.35 36.654V29.668H176.922V37.886H178C179.974 37.886 181.976 37.732 184.174 37.284L184.02 36.08C181.99 36.486 180.156 36.64 178.35 36.654ZM200.819 34.484V33.294H198.845V28.422H197.403V41.092H198.845V34.484H200.819ZM191.005 36.78V30.802H195.443V29.626H189.563V37.984H190.599C192.881 37.984 194.603 37.9 196.507 37.564L196.353 36.374C194.603 36.668 193.021 36.78 191.005 36.78ZM203.492 40.182V38.446H201.84V40.182H203.492Z" fill="white"/>
</g>
<defs>
<filter id="filter0_d_126306_956" x="0" y="0" width="290" height="80" filterUnits="userSpaceOnUse" color-interpolation-filters="sRGB">
<feFlood flood-opacity="0" result="BackgroundImageFix"/>
<feColorMatrix in="SourceAlpha" type="matrix" values="0 0 0 0 0 0 0 0 0 0 0 0 0 0 0 0 0 0 127 0" result="hardAlpha"/>
<feOffset dy="5"/>
<feGaussianBlur stdDeviation="7.5"/>
<feComposite in2="hardAlpha" operator="out"/>
<feColorMatrix type="matrix" values="0 0 0 0 0.278431 0 0 0 0 0.286275 0 0 0 0 0.301961 0 0 0 0.1 0"/>
<feBlend mode="normal" in2="BackgroundImageFix" result="effect1_dropShadow_126306_956"/>
<feBlend mode="normal" in="SourceGraphic" in2="effect1_dropShadow_126306_956" result="shape"/>
</filter>
</defs>
</svg>
